<?xml version="1.0" encoding="UTF-8" standalone="no"?>
<!-- Created with Inkscape (http://www.inkscape.org/) -->
<svg xmlns:rdf="http://www.w3.org/1999/02/22-rdf-syntax-ns#" xmlns="http://www.w3.org/2000/svg" xmlns:cc="http://web.resource.org/cc/" xmlns:dc="http://purl.org/dc/elements/1.1/" xmlns:svg="http://www.w3.org/2000/svg" xmlns:inkscape="http://www.inkscape.org/namespaces/inkscape" xmlns:sodipodi="http://sodipodi.sourceforge.net/DTD/sodipodi-0.dtd" xmlns:ns1="http://sozi.baierouge.fr" xmlns:xlink="http://www.w3.org/1999/xlink" id="Layer_1" xml:space="preserve" version="1.0" viewBox="0 0 227.758 186.778" inkscape:version="0.91 r13725">
<path id="path5" style="fill-rule:evenodd" d="m129.91 185.59h-35.064c0.18 1.58 0.18 1.58 0 0-0.216-1.69-0.72-6.27-1.224-9.69-0.648-3.56-1.296-7.12-2.232-11.12-4.176 0.86-8.244 1.23-12.348 1.23-4.104-0.04-8.1-0.58-12.132-1.48-0.504 2.55-1.116 5.65-1.98 9.14-0.936 3.53-1.872 7.45-3.204 11.92h-37.296c-1.152-22.68-2.34-38.7-3.708-49.18-1.404-10.44-2.556-11.84-4.428-12.81-1.98-0.94-4.644 2.55-7.164 7.12-2.628 4.5-5.436 10.84-8.424 19.55-1.044-10.26-0.972-19.51 0.504-28.44 1.476-8.85 4.068-16.63 7.92-24.44 3.672-7.956 8.82-16.236 14.328-22.464 5.4-6.3 11.016-10.728 18.252-14.832 7.128-4.14 15.372-7.308 24.732-9.648-1.584-9.108-2.16-16.704-1.728-23.22 0.36-6.516 1.62-11.376 4.176-15.552 2.484-4.356 6.948-8.028 10.872-9.9 3.852-1.98 8.352-2.016 12.132-1.476 3.744 0.504 6.984 2.196 10.116 4.68 3.06 2.376 5.72 5.544 8.14 9.648 5.76-2.7 11.3-4.284 17.06-4.752 5.65-0.54 11.12-0.432 16.81 1.728 5.62 2.124 12.13 6.264 16.78 10.62 4.43 4.212 7.67 9.647 10.15 14.652 2.45 4.968 3.96 9.72 4.68 14.796 2.23-0.18 4 0.324 5.44 1.512 1.4 1.152 2.16 2.916 2.95 5.436 0.72 2.34 1.51 6.516 1.26 9.072-0.43 2.592-1.55 4.572-3.49 6.228 3.27 3.996 7.02 9.36 11.62 16.236 4.47 6.876 9.8 17.066 15.56 24.736 5.69 7.59 11.95 14.11 18.79 20.23-0.43 3.67-1.4 6.3-3.2 8.17-1.84 1.8-4.22 2.7-7.42 2.7-7.7-6.66-14.33-12.24-20.02-17.03-5.79-4.72-8.64-7.99-14.07-11.38-5.51-3.56-11.56-6.72-18.54-9.64 0.43 1.51-0.36 2.95-2.23 4.46-1.95 1.51-5.04 3.46-9.15 4.43-4.14 0.87-9.32 0.9-15.55 0.5-2.2 10.23-3.93 20.92-5.19 32.37-1.29 11.44-2.12 23.22-2.48 35.89z"/>
<path id="path7" style="fill-rule:evenodd;stroke:#000000;stroke-width:.036;stroke-miterlimit:10;fill:#ffffff" d="m119.04 40.33c-4.36-9.972-8.36-17.568-11.85-23.22-3.63-5.688-5.97-8.172-9.393-10.368-3.564-2.304-7.452-3.528-11.124-2.988-3.744 0.54-8.064 2.376-10.872 5.94-2.844 3.456-5.184 8.352-5.904 14.832-0.72 6.372 0.468 15.732 1.476 23.22 0.936 7.416 2.952 14.364 3.708 20.988 0.468 6.516-0.036 12.888 0 18.288 0 5.328-0.936 9.467 0.252 13.828 1.116 4.31 3.384 9.83 6.66 12.09 3.168 2.2 8.064 2.49 12.348 1.01 4.14-1.69 8.099-5.87 12.849-10.15 4.68-4.321 9.61-9.289 15.09-15.301-0.9 2.844-2.27 5.688-3.96 8.388-1.73 2.736-3.93 5.333-6.45 7.923 4.14 2.88 8.75 4.97 14.11 6.41 5.33 1.33 12.42 2.12 17.79 1.98 5.29-0.4 11.19-1.66 13.82-3.21 2.34-1.44 2.52-2.88 0.97-5.44-1.62-2.66-4.86-6.115-10.11-10.364 7.16 3.78 14.15 7.594 21.24 11.594 6.95 3.92 14.97 8.24 20.77 12.13 5.83 3.89 9.47 7.31 13.82 11.09 4.22 3.63 7.96 7.09 11.38 10.65 0.11-1.4 0.68-2.55 1.73-3.45 0.93-0.94 2.37-1.73 4.17-2.23-7.41-7.45-13.86-14.91-19.76-22.5-5.98-7.74-11.45-16.744-15.3-22.972-3.78-6.156-6.3-10.764-7.42-13.824-3.27-0.036-5.83-1.08-7.66-2.988-1.95-2.052-2.92-6.048-3.46-8.64-0.61-2.628-0.79-4.896 0-6.66 0.68-1.764 2.09-3.132 4.21-3.96-2.45-8.352-5.43-15.3-9.39-20.988-4.07-5.724-9.69-10.044-14.08-13.104-4.35-3.168-7.7-4.572-11.84-5.184-4.32-0.648-9.15 0.684-13.36 1.476-4.28 0.756-8.14 1.692-11.84 2.952 2.01 2.34 3.71 5.256 4.93 9.144 1.19 3.743 2.05 8.279 2.45 13.608z"/>
<path id="path9" style="stroke:#000000;stroke-width:.036;stroke-miterlimit:10;fill-rule:evenodd" d="m153.52 55.954c-2.01 1.512-3.09 5.94-3.09 9s1.62 6.768 3.35 9.036c1.65 2.124 4.5 3.744 6.44 3.888 1.91 0 3.6-1.26 4.64-3.636 0.9-2.448 1.27-7.776 0.8-10.836-0.69-3.204-1.8-6.48-3.89-7.74-2.05-1.261-6.37-1.297-8.25 0.288z"/>
<path id="path11" style="fill-rule:evenodd;stroke:#000000;stroke-width:.036;stroke-miterlimit:10;fill:#ffffff" d="m157.09 73.666c-2.34-2.34-3.78-4.86-4.18-7.164-0.5-2.412 0.22-5.868 1.48-7.164 1.19-1.44 4.1-1.584 5.69-0.972 1.48 0.54 2.59 2.664 3.2 4.428 0.51 1.656 0.18 3.924 0 5.688-0.32 1.692-0.9 2.952-1.73 4.212 0.54-2.196 0.51-3.636-0.25-4.716-0.83-1.116-3.38-1.656-4.21-1.476-0.9 0.108-1.04 1.26-0.97 2.484-0.04 1.223 0.28 2.735 0.97 4.68z"/>
<path id="path13" style="fill-rule:evenodd;stroke:#000000;stroke-width:.036;stroke-miterlimit:10;fill:#ffffff" d="m175.38 71.217c-2.41-2.34-3.82-4.86-4.22-7.164-0.53-2.412 0.29-5.868 1.52-7.164 1.15-1.368 4.14-1.656 5.65-1.008 1.48 0.612 2.56 2.7 3.24 4.464 0.5 1.656 0.18 3.96 0 5.652-0.33 1.692-0.9 2.952-1.73 4.212 0.54-2.124 0.5-3.636-0.25-4.68-0.83-1.116-3.39-1.656-4.21-1.476-0.9 0.144-1.05 1.188-0.98 2.448-0.03 1.225 0.29 2.7 0.98 4.716z"/>
<path id="path15" style="stroke:#000000;stroke-width:.036;stroke-miterlimit:10;fill-rule:evenodd" d="m101 52.677c-2.951 3.168-4.715 6.12-5.435 9.396-0.72 3.168-0.756 7.2 1.26 9.612 2.016 2.34 5.505 3.78 10.615 4.464-4.14-3.096-6.55-6.408-7.663-10.368-1.079-3.96-0.719-8.28 1.223-13.104z"/>
<path id="path17" style="fill-rule:evenodd;stroke:#000000;stroke-width:.036;stroke-miterlimit:10;fill:#ffffff" d="m67.917 54.657c-8.424 1.404-15.984 4.068-22.968 8.136-7.055 3.997-13.643 10.188-18.791 16.057-5.256 5.868-9.108 13.104-12.096 18.792-3.024 5.508-4.356 8.718-5.94 14.328-1.728 5.61-2.916 11.77-3.96 19.01 2.808-5.69 5.58-9.33 8.172-11.34 2.556-2.02 5.076-4.18 7.416-0.51 2.196 3.68 4.716 11.99 6.156 22.47 1.44 10.4 2.052 23.4 2.232 39.53h29.664c1.908-4.54 3.42-9.76 4.68-15.81 1.224-6.16 1.944-12.85 2.448-20.48 0.792 2.02 1.332 4.32 1.764 6.91 0.396 2.59 0.684 5.47 0.72 8.64 3.024 1.08 6.444 1.66 10.116 1.73 3.708-0.04 7.524-0.4 11.88-1.48 0.036-1.51-0.18-3.49-0.504-5.94-0.396-2.48-0.972-5.4-1.728-8.89 3.384 5.76 5.976 11.56 7.92 17.53 1.872 5.98 3.024 11.85 3.456 18.04h27.646c0.5-12.75 1.55-24.16 2.74-35.07 1.15-10.94 2.84-20.55 4.68-29.66-7.27-1.87-12.82-3.42-16.78-4.93-3.99-1.55-6.26-2.77-6.95-3.96-3.74 4.5-7.77 7.48-12.092 9.39-4.392 1.77-10.332 2.63-14.076 1.48-3.78-1.3-6.66-5.15-8.64-8.64-2.196-3.56-3.744-6.37-4.212-12.6-0.612-6.408 1.476-18 1.008-25.2-0.468-7.165-1.836-12.961-3.961-17.533z"/>
<path id="path19" style="fill-rule:evenodd;stroke:#000000;stroke-width:.036;stroke-miterlimit:10;fill:#ffffff" d="m223.94 136.3c-2.05 0.11-3.49 0.69-4.46 1.73-1.01 1.05-1.41 2.49-1.34 4.47 2.06-0.04 3.64-0.51 4.61-1.55 0.98-1.15 1.37-2.52 1.19-4.65z"/>
<metadata><rdf:RDF><cc:Work><dc:format>image/svg+xml</dc:format><dc:type rdf:resource="http://purl.org/dc/dcmitype/StillImage"/><cc:license rdf:resource="http://creativecommons.org/licenses/publicdomain/"/><dc:publisher><cc:Agent rdf:about="http://openclipart.org/"><dc:title>Openclipart</dc:title></cc:Agent></dc:publisher><dc:title>Certain Elephant</dc:title><dc:date>2007-11-26T23:08:51</dc:date><dc:description>From wiki commons.&#13;\n&#13;\nThe picture was designed by D. A. Arbatsky (Russian physicist) and used in his popular science article “The certainty principle for Elephants”. Later it was brought to WP by Rcq (from permission of Arbatsky) and used as an award for Slicky, who created the article devoted to the certainty principle (which was later deleted, because it was based on “original research”).&#13;\n&#13;\n"The copyright holder has irrevocably released all rights to it, allowing it to be freely reproduced, distributed, transmitted, used, modified, built upon, or otherwise exploited in any way by anyone for any purpose, commercial or non-commercial, with or without attribution of the author."&#13;\n&#13;\nNORIGHTSRESERVED.</dc:description><dc:source>https://openclipart.org/detail/9177/certain-elephant-by-gerald_g-9177</dc:source><dc:creator><cc:Agent><dc:title>Gerald_G</dc:title></cc:Agent></dc:creator><dc:subject><rdf:Bag><rdf:li>animal</rdf:li><rdf:li>cartoon</rdf:li><rdf:li>elephant</rdf:li><rdf:li>externalsource</rdf:li><rdf:li>mammal</rdf:li></rdf:Bag></dc:subject></cc:Work><cc:License rdf:about="http://creativecommons.org/licenses/publicdomain/"><cc:permits rdf:resource="http://creativecommons.org/ns#Reproduction"/><cc:permits rdf:resource="http://creativecommons.org/ns#Distribution"/><cc:permits rdf:resource="http://creativecommons.org/ns#DerivativeWorks"/></cc:License></rdf:RDF></metadata></svg>
